HIERARCHY
ROOT Bip001_Pelvis
{
  OFFSET 33.2923 95.8902 -28.781
  CHANNELS 6 Xposition Yposition Zposition Zrotation Xrotation Yrotation
  JOINT Bip001_Spine
  {
    OFFSET 1.4188e-005 10.2191 -0.0116013
    CHANNELS 3 Zrotation Xrotation Yrotation
    JOINT Bip001_L_Thigh
    {
      OFFSET 11.0458 -10.2192 0.0116197
      CHANNELS 3 Zrotation Xrotation Yrotation
      JOINT Bip001_L_Calf
      {
        OFFSET -0.707118 -44.0221 0.360014
        CHANNELS 3 Zrotation Xrotation Yrotation
        JOINT Bip001_L_Foot
        {
          OFFSET -0.651902 -40.5938 -3.56146
          CHANNELS 3 Zrotation Xrotation Yrotation
          JOINT Bip001_L_Toe0
          {
            OFFSET 0.0530839 -10.2181 13.1504
            CHANNELS 3 Zrotation Xrotation Yrotation
            End Site
            {
              OFFSET -1.02532e-005 0 7.55606
            }
          }
        }
      }
    }
    JOINT Bip001_R_Thigh
    {
      OFFSET -11.0458 -10.2191 0.0115893
      CHANNELS 3 Zrotation Xrotation Yrotation
      JOINT Bip001_R_Calf
      {
        OFFSET 0.706994 -44.0221 0.35984
        CHANNELS 3 Zrotation Xrotation Yrotation
        JOINT Bip001_R_Foot
        {
          OFFSET 0.651786 -40.5938 -3.5613
          CHANNELS 3 Zrotation Xrotation Yrotation
          JOINT Bip001_R_Toe0
          {
            OFFSET -0.0531479 -10.2181 13.1504
            CHANNELS 3 Zrotation Xrotation Yrotation
            End Site
            {
              OFFSET -1.02894e-005 0 7.55606
            }
          }
        }
      }
    }
    JOINT Bip001_Spine1
    {
      OFFSET 1.87041e-005 14.5736 1.08638
      CHANNELS 3 Zrotation Xrotation Yrotation
      JOINT Bip001_Spine2
      {
        OFFSET 2.24614e-005 14.5058 -1.69078
        CHANNELS 3 Zrotation Xrotation Yrotation
        JOINT Bip001_Neck
        {
          OFFSET 2.20278e-005 15.3945 -0.489414
          CHANNELS 3 Zrotation Xrotation Yrotation
          JOINT Bip001_L_Clavicle
          {
            OFFSET 6.06036 -0.000579998 0.00836775
            CHANNELS 3 Zrotation Xrotation Yrotation
            JOINT Bip001_L_UpperArm
            {
              OFFSET 11.5509 -0.0600302 0.00193952
              CHANNELS 3 Zrotation Xrotation Yrotation
              JOINT Bip001_L_Forearm
              {
                OFFSET 25.9523 0.0806089 -2.15551
                CHANNELS 3 Zrotation Xrotation Yrotation
                JOINT Bip001_L_Hand
                {
                  OFFSET 32.2476 0.153767 1.63968
                  CHANNELS 3 Zrotation Xrotation Yrotation
                  JOINT Bip001_L_Finger0
                  {
                    OFFSET 6.04639 -2.20976 5.90322
                    CHANNELS 3 Zrotation Xrotation Yrotation
                    End Site
                    {
                      OFFSET 4.22376 -1.43895 0.606486
                    }
                  }
                  JOINT Bip001_L_Finger1
                  {
                    OFFSET 11.0826 -0.704819 -0.198153
                    CHANNELS 3 Zrotation Xrotation Yrotation
                    End Site
                    {
                      OFFSET 6.20028 -0.397518 -0.0787166
                    }
                  }
                }
              }
            }
          }
          JOINT Bip001_R_Clavicle
          {
            OFFSET -6.06036 -0.000563197 0.00835105
            CHANNELS 3 Zrotation Xrotation Yrotation
            JOINT Bip001_R_UpperArm
            {
              OFFSET -11.5509 -0.0599978 0.00190698
              CHANNELS 3 Zrotation Xrotation Yrotation
              JOINT Bip001_R_Forearm
              {
                OFFSET -25.9523 0.080682 -2.1559
                CHANNELS 3 Zrotation Xrotation Yrotation
                JOINT Bip001_R_Hand
                {
                  OFFSET -32.2476 0.153858 1.63991
                  CHANNELS 3 Zrotation Xrotation Yrotation
                  JOINT Bip001_R_Finger0
                  {
                    OFFSET -6.04641 -2.20974 5.90321
                    CHANNELS 3 Zrotation Xrotation Yrotation
                    End Site
                    {
                      OFFSET -4.22376 -1.43894 0.606474
                    }
                  }
                  JOINT Bip001_R_Finger1
                  {
                    OFFSET -11.0826 -0.704789 -0.198184
                    CHANNELS 3 Zrotation Xrotation Yrotation
                    End Site
                    {
                      OFFSET -6.20028 -0.397501 -0.0787338
                    }
                  }
                }
              }
            }
          }
          JOINT Bip001_Head
          {
            OFFSET 1.09673e-005 11.2744 2.05948
            CHANNELS 3 Zrotation Xrotation Yrotation
            End Site
            {
              OFFSET 2.89576e-005 20.8808 -2.77728e-005
            }
          }
        }
      }
    }
  }
}
MOTION
Frames:	13
Frame Time:	0.04
32.5666 95.8913 -28.7534 0.608116 -0.766608 -0.165899 -0.0303769 2.91716 -0.723721 4.63934 -2.98923 6.77457 -0.614344 6.7582 -10.1482 5.20515 -1.21037 -0.213513 -3.15764 -5.006 5.20299 -3.4969 -4.44989 -0.0731437 0.303537 11.4368 -0.04766 -5.28848 -10.0329 3.01347 1.94372 -6.96427 2.44054 -0.0211817 5.83582 -1.44838 -0.0211233 5.83583 -1.44849 -0.674771 2.42744 -1.43716 -23.4365 -0.525976 -3.60976 -50.3592 40.1186 -1.57817 13.1091 0.840041 -25.3032 7.92074 0.872254 -2.35556 -6.36111e-015 0 -0 -3.18055e-015 0 1.59028e-015 29.4412 5.11367 17.4101 49.4169 35.8479 0.809837 -7.29333 10.8416 5.78416 -5.52771 2.06905 5.24288 -3.97569e-015 3.18055e-015 -3.97569e-016 -3.97569e-015 6.36111e-015 -3.97569e-016 -0.719842 10.9549 -1.37949 
32.5774 95.8831 -28.7504 0.604562 -0.86128 -0.453457 -0.0238362 2.91714 -0.757565 4.52401 -2.70394 6.71547 -0.614626 6.42382 -9.95313 6.05907 -0.515077 -0.28456 -2.84994 -5.57224 4.96199 -3.57244 -4.43508 -0.0219531 0.354887 11.4983 0.0265704 -5.22766 -10.0914 3.21944 1.91913 -6.8996 2.44021 -0.00959704 5.83084 -1.51816 -0.00951457 5.83086 -1.51749 -0.677954 2.4941 -1.3695 -23.4071 -0.557903 -3.71889 -50.5673 40.2497 -1.50796 13.0783 0.774242 -25.3189 8.08946 0.914078 -2.336 -6.36111e-015 -3.18055e-015 3.18055e-015 -3.18055e-015 0 3.18055e-015 29.4602 5.09677 17.5729 48.5989 37.6867 1.93358 -8.10616 7.74314 6.73773 -7.18337 1.92129 4.75438 -1.59028e-015 0 7.95139e-016 -1.59028e-015 -3.18056e-015 1.59028e-015 -0.702824 11.0349 -1.31645 
32.5698 95.8921 -28.7675 0.559493 -0.929588 -0.729029 -0.0126423 2.91714 -0.754259 4.55699 -2.60155 6.66516 -0.593286 6.47005 -9.56239 5.59347 -0.930776 -0.237449 -3.00384 -5.30006 5.10075 -3.56339 -4.38799 -0.00509809 0.357325 11.4202 0.0947997 -5.15132 -10.0536 3.41128 1.90685 -6.84867 2.42457 0.0234913 5.83039 -1.51072 0.0226555 5.83043 -1.51095 -0.703688 2.484 -1.38336 -23.3874 -0.48692 -3.91691 -50.5613 40.4705 -1.52559 12.9811 0.583216 -25.2954 8.13601 1.0762 -2.32672 0 0 -0 -3.18055e-015 3.18056e-015 -1.59028e-015 29.5512 5.29361 18.0396 47.7639 38.7625 2.94853 -8.83423 5.68622 7.58302 -8.2963 2.29947 3.5239 7.95139e-015 3.18055e-015 2.38542e-015 4.77083e-015 0 1.59028e-015 -0.488634 11.0142 -1.40843 
32.5962 95.886 -28.8379 0.579301 -0.903093 -0.995888 -0.0122679 2.90944 -0.703466 4.45649 -2.56227 6.33996 -0.607499 6.28898 -9.12999 6.09065 -0.376799 -0.288941 -2.77542 -5.7414 4.87545 -3.62522 -4.55354 0.0649271 0.39201 11.5434 0.158632 -5.11151 -10.0775 3.50152 1.9019 -6.81768 2.40369 0.00732407 5.81692 -1.40904 0.00675464 5.81694 -1.40902 -0.682354 2.24136 -1.51771 -23.3721 -0.208976 -4.06436 -50.3527 40.7466 -1.70416 13.0295 0.66287 -25.2641 7.95642 0.899669 -2.37659 8.82781e-032 3.18055e-015 -1.59028e-015 1.76556e-031 3.18056e-015 -3.18055e-015 29.4891 5.71937 18.4687 46.9621 39.7213 3.98736 -9.53737 4.16526 8.37567 -9.31713 2.77932 2.76655 3.18055e-015 3.18055e-015 1.59028e-015 -1.32417e-031 3.18056e-015 2.38542e-015 -0.260821 11.1107 -1.59793 
32.5678 95.8858 -28.8283 0.502921 -1.02438 -1.07747 -0.00699739 2.92163 -0.675384 4.55792 -2.427 6.38781 -0.661297 6.28027 -9.19278 6.18209 -0.354174 -0.296746 -2.8277 -5.76218 4.90884 -3.52061 -4.38262 0.73058 0.496817 11.3841 0.0457408 -5.21923 -9.94758 3.03629 1.90096 -6.81788 2.40234 0.0205818 5.84313 -1.35306 0.0205814 5.84314 -1.35306 -0.613292 2.04907 -1.64487 -23.3552 -0.0322511 -4.06038 -50.2092 40.9666 -1.92984 13.1587 0.795544 -25.2026 7.83732 0.854855 -2.49939 3.18055e-015 -3.18055e-015 -1.59028e-015 3.18055e-015 0 -1.59028e-015 29.2645 6.03635 18.8291 46.4786 41.2618 4.53043 -10.455 1.92626 9.34225 -9.95782 2.81287 2.74064 -3.18055e-015 -6.36111e-015 -0 -3.18055e-015 -6.36111e-015 -1.59028e-015 -0.0282623 11.1659 -1.77075 
32.5372 95.8996 -28.8016 0.392336 -1.20481 -1.04216 0.0124018 2.93154 -0.651819 4.73373 -2.30217 6.08134 -0.742004 6.44784 -8.78491 5.60106 -0.92877 -0.236895 -3.00636 -5.3684 5.06441 -3.38783 -4.03278 0.486272 0.376515 11.0716 0.115144 -5.15719 -9.84873 3.19748 1.9 -6.81815 2.39841 0.0586607 5.8654 -1.30708 0.0585231 5.86541 -1.30697 -0.605742 1.89582 -1.74644 -23.3773 0.110815 -4.05186 -50.0803 40.8835 -2.0569 13.0694 0.679553 -25.2614 7.93491 0.898676 -2.47161 3.18055e-015 3.18055e-015 -1.59028e-015 3.18055e-015 3.18056e-015 -0 29.2334 6.28537 19.0339 45.95 42.3727 4.731 -11.5054 -1.04268 10.4074 -8.46309 2.52112 3.60611 -3.18055e-015 6.36111e-015 -1.59028e-015 0 3.18056e-015 -0 0.19283 11.3328 -1.93489 
32.5673 95.9005 -28.8303 0.440695 -1.19222 -1.03474 0.00212458 2.91402 -0.630749 4.63669 -2.25538 5.72773 -0.736439 6.29235 -8.50912 5.75661 -0.703122 -0.255468 -2.93996 -5.47524 5.01746 -3.45576 -4.05554 0.468504 0.393661 11.1028 0.102551 -5.14737 -9.85601 3.22592 1.89878 -6.81816 2.39035 0.035372 5.8278 -1.26302 0.0359912 5.82781 -1.26351 -0.708251 1.85339 -1.7551 -23.3283 0.150429 -4.01712 -49.9081 40.6283 -2.18946 12.9332 0.550891 -25.4136 7.98715 1.00825 -2.46602 6.36111e-015 0 -0 -0 0 3.18055e-015 29.3372 6.3916 19.2015 45.4223 41.9165 5.03691 -12.0203 -0.41507 11.3374 -9.453 2.0474 3.63129 -5.29669e-031 9.54166e-015 3.18055e-015 -5.29669e-031 9.54167e-015 3.18055e-015 0.425112 11.3334 -2.04762 
32.661 95.8978 -28.8967 0.59954 -1.0973 -1.03313 -0.0394569 2.86911 -0.59645 4.39494 -2.25461 5.40204 -0.67577 6.04589 -8.25786 5.90938 -0.432569 -0.279847 -2.89788 -5.57036 4.97302 -3.66184 -4.27638 0.540731 0.480653 11.36 0.0795645 -5.18256 -9.95034 3.12665 1.89935 -6.80757 2.39984 -0.0493211 5.73848 -1.19316 -0.0493208 5.73849 -1.19317 -0.649888 1.67044 -1.77716 -23.3866 0.294768 -3.87709 -49.8768 40.3067 -2.23024 12.8835 0.572958 -25.6327 8.21094 1.03063 -2.48014 3.18055e-015 0 -3.18055e-015 8.82782e-032 3.18056e-015 -1.59028e-015 29.2422 6.55227 19.123 45.0989 41.9361 5.302 -12.6095 -0.133066 11.8899 -10.1488 1.98947 3.52524 0 0 -0 0 0 -0 0.409565 11.5603 -2.04421 
32.6967 95.9021 -28.9135 0.641603 -1.1132 -0.87729 -0.0538278 2.85499 -0.579892 4.35011 -2.24569 5.13576 -0.682812 6.00384 -8.10522 5.79811 -0.497944 -0.269915 -2.91834 -5.47131 4.9818 -3.7093 -4.24181 0.445034 0.481338 11.3945 0.0607365 -5.20789 -9.94574 3.06212 1.90104 -6.82889 2.4067 -0.0723873 5.71042 -1.15946 -0.0785271 5.71043 -1.15938 -0.638546 1.63105 -1.7961 -23.3821 0.315022 -3.82558 -49.8933 40.0581 -2.23076 12.8998 0.704172 -25.832 8.27725 1.07329 -2.54462 -3.18055e-015 0 1.59028e-015 0 0 -1.59028e-015 29.2976 6.6335 19.1776 45.0264 41.7519 5.03528 -13.3922 -0.354886 12.552 -10.4932 2.31473 3.31284 -3.18055e-015 3.18055e-015 -0 -3.18055e-015 3.18056e-015 -1.59028e-015 0.432069 11.5928 -2.06777 
32.7031 95.8833 -28.9173 0.643961 -1.14191 -0.704489 -0.0565294 2.85365 -0.562139 4.34849 -2.41066 6.89171 -0.441823 6.37748 -10.0337 5.79408 -0.687373 -0.266332 -2.91352 -5.50655 4.95119 -3.70781 -4.2595 0.256166 0.469432 11.552 0.0949424 -5.20537 -10.0064 3.05892 1.90098 -6.81909 2.40581 -0.0762837 5.71093 -1.12385 -0.0834317 5.71093 -1.12385 -0.709862 1.48155 -1.7974 -23.2758 0.445284 -3.74282 -49.9844 39.9501 -2.22422 12.9517 0.914117 -25.9049 8.26806 0.958546 -2.56455 -3.18055e-015 9.54166e-015 -4.77083e-015 -3.18055e-015 1.59028e-014 -1.59028e-015 29.3369 6.7647 19.128 45.1082 41.2026 4.5881 -13.9605 -0.00255506 13.37 -10.5694 3.32495 3.5203 0 3.18055e-015 -0 -6.36111e-015 0 -0 0.547479 11.7039 -2.12332 
32.7054 95.8932 -28.9151 0.634395 -1.15897 -0.594109 -0.0589336 2.85339 -0.524666 4.37464 -2.38809 6.06305 -0.557581 6.30896 -9.31629 5.75686 -0.683237 -0.265372 -2.93376 -5.44022 4.96748 -3.70124 -4.1545 0.0958887 0.452727 11.425 0.109196 -5.223 -9.97993 3.05718 1.90322 -6.83962 2.40494 -0.0841453 5.71226 -1.0483 -0.0911521 5.71226 -1.04843 -0.647921 1.43136 -1.85559 -23.3535 0.492593 -3.7537 -50.0301 40.0741 -2.13245 12.8539 0.57664 -25.8981 8.30633 0.944448 -2.41829 -0 0 1.59028e-015 3.18055e-015 3.18056e-015 -0 29.3378 6.83344 19.1077 45.1678 41.0259 3.98135 -14.5298 0.0564767 14.1943 -10.5987 3.85621 3.48202 -6.36111e-015 -3.18055e-015 -0 -6.36111e-015 0 -0 0.493438 11.7058 -2.1412 
32.6857 95.8847 -28.906 0.574571 -1.22429 -0.539599 -0.0607386 2.85344 -0.500835 4.45168 -2.42512 6.79793 -0.481765 6.5074 -10.1637 5.94021 -0.649919 -0.269378 -2.88924 -5.55642 4.90658 -3.61413 -4.06546 0.0474405 0.431011 11.4013 0.112255 -5.2316 -9.96414 3.02808 1.90495 -6.84693 2.40439 -0.0960887 5.71648 -1.00111 -0.0964521 5.71648 -1.00095 -0.626939 1.37744 -1.86304 -23.3978 0.519092 -3.65672 -50.1463 40.144 -2.01351 12.8174 0.426615 -25.7573 8.28215 0.797969 -2.32282 3.18055e-015 0 3.18055e-015 3.18055e-015 3.18056e-015 1.59028e-015 29.3677 6.90475 19.1017 45.3738 41.0357 3.25859 -15.2026 0.875021 14.8642 -11.5396 3.00384 3.78048 -0 -3.18055e-015 -0 3.18055e-015 -3.18056e-015 -1.59028e-015 0.392773 11.8238 -2.11182 
32.6717 95.8858 -28.9 0.541541 -1.25518 -0.531175 -0.0694611 2.85358 -0.491949 4.51694 -2.42623 6.8141 -0.48008 6.57672 -10.1729 5.76212 -0.810189 -0.251841 -2.9505 -5.45999 4.96844 -3.56085 -3.99808 -0.0133593 0.405038 11.3296 0.116972 -5.21636 -9.95278 3.07692 1.90734 -6.84808 2.42021 -0.113592 5.72673 -0.98419 -0.113547 5.72673 -0.984763 -0.69457 1.34809 -1.80567 -23.4044 0.534626 -3.56832 -50.2379 40.1257 -1.91678 12.8671 0.43179 -25.5532 8.16771 0.737844 -2.28604 3.53112e-031 -6.36111e-015 3.18055e-015 8.82782e-032 -3.18056e-015 1.59028e-015 29.3971 6.9186 19.1189 45.6852 40.6925 2.71437 -15.6562 2.68579 15.435 -12.3291 2.94406 4.05154 3.18055e-015 -3.18055e-015 -0 3.18055e-015 0 1.59028e-015 0.294269 11.8587 -2.04458 
